# xmcd
#
# Track frame offsets:
#	150
#	15535
#	34833
#	52318
#	97225
#	109080
#	126885
#	150398
#
# Disc length: 2364 seconds
#
# Revision: 0
# Processed by: cddbd v1.5.1PL0 Copyright (c) Steve Scherf et al.
# Submitted via: dBpowerAMP V4.0
#
DISCID=67093a08
DTITLE=Bobby Bland and B.B. King - I Like To Live The Love
DYEAR=1900
DGENRE=Blues
TTITLE0=Three O'Clock Blues
TTITLE1=It's My Own Fault
TTITLE2=That's The Way Love Is
TTITLE3=I'm Sorry
TTITLE4=Don't Cry No More
TTITLE5=Don't Answer The Door
TTITLE6=Goin' Down Slow
TTITLE7=I Like To Live The Love
EXTD=
EXTT0=
EXTT1=
EXTT2=
EXTT3=
EXTT4=
EXTT5=
EXTT6=
EXTT7=
PLAYORDER=
